<?xml version="1.0" encoding="utf-8"?>
<svg version="1.1" xmlns="http://www.w3.org/2000/svg" xmlns:xlink="http://www.w3.org/1999/xlink" x="0px" y="0px" viewBox="0 0 515 160" style="enable-background:new 0 0 515 160;" xml:space="preserve">
  <g>
      <path d="M289.11,86.14c0,10.9,0,21.8,0,32.78c-8.09,0-16.02,0-24.03,0c0-24.58,0-49.18,0-73.94c2,0,4.02,0,6.04,0 c4.62,0,9.25-0.03,13.87,0.04c0.61,0.01,1.42,0.33,1.8,0.79c8.29,9.99,16.52,20.03,24.77,30.05c0.71,0.86,1.43,1.71,2.39,2.85 c0-11.45,0-22.54,0-33.73c5.63,0,11.11,0,16.6,0c2.29,0,4.58-0.04,6.87,0.04c0.35,0.01,0.98,0.61,0.98,0.95 c0.06,5.96,0.09,11.92,0.04,17.87c-0.13,16.47-0.31,32.93-0.43,49.4c-0.01,1.6,0.35,3.21,0.42,4.82c0.01,0.3-0.57,0.89-0.88,0.89 c-6.37,0.05-12.75,0.06-19.12,0c-0.55-0.01-1.22-0.49-1.61-0.95c-7.54-8.83-15.04-17.69-22.55-26.55c-1.1-1.3-2.18-2.63-3.27-3.93 c-0.47-0.56-0.96-1.09-1.44-1.64C289.42,85.97,289.26,86.05,289.11,86.14z"/>
      <path d="M178.05,118.99c0-24.68,0-49.25,0-74.01c0.4,0,0.84,0,1.27,0c13.5,0,27-0.04,40.5,0.02 c5.55,0.03,10.77,1.59,15.98,3.46c3.89,1.39,7.17,3.75,9.96,6.46c2.82,2.74,4.9,6.35,6.89,9.82c2.48,4.34,3.8,9.06,3.4,14.2 c-0.29,3.69-0.04,7.42-0.33,11.1c-0.2,2.5-0.58,5.11-1.51,7.41c-0.96,2.38-2.41,4.71-4.15,6.61c-2.94,3.21-5.95,6.55-9.53,8.93 c-3.41,2.27-7.5,3.71-11.48,4.88c-3.01,0.89-6.31,1.06-9.48,1.09c-13.37,0.11-26.75,0.05-40.12,0.05 C178.99,118.99,178.54,118.99,178.05,118.99z M230.04,89.01c0,1.71,0,3.32,0,4.9c1.04,0,1.97,0,2.89,0c0-7.34,0-14.6,0-21.97 c-3,0-5.94,0-8.97,0c0-2.37,0-4.64,0-6.9c-6.7,0-13.3,0-19.99,0c0,2.33,0,4.6,0,6.97c-3.03,0-5.97,0-8.91,0 c0,7.37,0,14.63,0,21.91c1,0,1.93,0,2.96,0c0-1.66,0-3.27,0-4.88c0.7,0,1.3,0,2,0c0,1.66,0,3.27,0,4.88c1.04,0,1.97,0,3,0 c0-1.67,0-3.27,0-4.88c0.7,0,1.3,0,2,0c0,1.66,0,3.27,0,4.87c1.04,0,1.97,0,3,0c0-1.67,0-3.27,0-4.87c0.7,0,1.3,0,2,0 c0,1.66,0,3.27,0,4.87c1.04,0,1.97,0,3,0c0-1.67,0-3.27,0-4.87c0.7,0,1.3,0,2,0c0,1.67,0,3.27,0,4.87c1.04,0,1.97,0,3,0 c0-1.67,0-3.27,0-4.87c0.7,0,1.3,0,2,0c0,1.67,0,3.27,0,4.87c1.04,0,1.97,0,3,0c0-1.67,0-3.28,0-4.87c0.7,0,1.3,0,2,0 c0,1.67,0,3.27,0,4.86c1.04,0,1.97,0,3,0c0-1.67,0-3.28,0-4.9C228.71,89.01,229.28,89.01,230.04,89.01z"/>
      <path d="M28.03,118.92c0-24.65,0-49.22,0-73.94c0.47,0,0.91,0,1.35,0c14.04,0,28.08-0.06,42.12,0.04 c3.62,0.02,6.94,1.5,10.18,3.02c0.97,0.46,1.86,1.1,2.84,1.55c6.47,2.98,10.29,8.42,11.9,14.9c1.73,6.99,1.94,14.28-1.44,21.1 c-2.13,4.31-5.62,7.38-9.52,10c-0.73,0.49-1.05,0.83-0.51,1.63c3.5,5.19,7,10.39,10.47,15.6c0.99,1.48,1.96,2.99,2.83,4.54 c0.56,1,0.3,1.64-1.04,1.64c-8.46-0.02-16.92,0.08-25.37-0.13c-1.03-0.03-2.26-1.49-2.99-2.56c-1.72-2.53-3.13-5.27-4.79-7.85 c-1.26-1.97-2.75-3.8-4.05-5.75c-0.53-0.8-0.84-1.74-1.29-2.7c-2.1,0-4.34,0-6.68,0c0,6.29,0,12.56,0,18.9 C44.01,118.92,36.08,118.92,28.03,118.92z M52.04,81.99c5.17,0,10.28,0,15.38-0.01c0.18,0,0.41-0.07,0.54-0.18 c3.84-3.31,3.81-3.76,4.12-8.98c0.19-3.29-0.62-5.79-3.29-7.68c-0.52-0.37-1.01-1.1-1.52-1.11c-5.06-0.08-10.12-0.05-15.23-0.05 C52.04,70,52.04,75.9,52.04,81.99z"/>
      <path d="M161.97,72.94c0,6.09,0,12,0,18c-10.29,0-20.56,0-30.9,0c0,3.03,0,5.97,0,9c12.24,0,24.51,0,36.85,0 c0,6.36,0,12.63,0,19.06c-0.36,0-0.76,0-1.16,0c-19.87,0-39.74-0.02-59.61,0.03c-1.35,0-1.59-0.5-1.58-1.65 c0.15-22.07,0.29-44.13,0.42-66.2c0.01-1.64,0.04-3.29-0.01-4.93c-0.03-1.06,0.41-1.3,1.41-1.3c11.45,0.03,22.91,0.02,34.36,0.02 c8.37,0,16.73,0,25.17,0c0,6.33,0,12.6,0,18.96c-11.92,0-23.86,0-35.86,0c0,3.03,0,5.97,0,9 C141.32,72.94,151.59,72.94,161.97,72.94z"/>
      <path d="M350,118.92c0-1.73,0-3.43,0-5.13c0-21.17,0-42.34,0-63.51c0-1.44-0.12-2.88,0-4.31 c0.03-0.36,0.79-0.95,1.22-0.95c19.54-0.05,39.08-0.04,58.7-0.04c0,6.3,0,12.57,0,18.94c-11.89,0-23.82,0-35.84,0 c0,3.03,0,5.97,0,9.01c10.56,0,21.16,0,31.84,0c0,6.04,0,11.97,0,18.01c-10.57,0-21.17,0-31.85,0c0,3.03,0,5.97,0,9.01 c12.24,0,24.51,0,36.85,0c0,6.37,0,12.64,0,18.98C390.71,118.92,370.48,118.92,350,118.92z"/>
      <path d="M416.08,45.01c22.64,0,45.21,0,67.85,0c0,6.29,0,12.56,0,18.93c-7.25,0-14.52,0-21.88,0 c0,18.37,0,36.64,0,54.98c-8.03,0-15.97,0-24,0c0-18.25,0-36.52,0-54.89c-7.37,0-14.63,0-21.97,0 C416.08,57.66,416.08,51.39,416.08,45.01z"/>
  </g>
</svg>
