<?xml version="1.0" encoding="utf-8"?>
<svg version="1.1" xmlns="http://www.w3.org/2000/svg" xmlns:xlink="http://www.w3.org/1999/xlink" x="0px" y="0px" viewBox="0 0 274 274" style="enable-background:new 0 0 274 274;background-color:#e83425;" xml:space="preserve">
	<g fill="#fff">
		<path d="M50.98,193.11c0,11.29,0,22.02,0,32.82c-8.33,0-16.56,0-24.98,0c0-2.02,0-4.02,0-6.01c0-20.54,0.01-41.08-0.01-61.62 c0-1.45-0.25-2.9-0.27-4.35c-0.02-1.3,0.51-2,2.03-1.98c6.21,0.08,12.42-0.04,18.62,0.1c1.01,0.02,2.28,0.7,2.95,1.49 c8.37,9.98,16.66,20.04,24.97,30.08c0.14,0.17,0.34,0.31,0.7,0.63c0-10.88,0-21.51,0-32.21c8.36,0,16.6,0,24.92,0 c0,24.59,0,49.19,0,73.86c-7.35,0-14.7,0-21.84,0C69.08,215.02,60.19,204.26,50.98,193.11z"/>
		<path d="M177.05,126.94c0-24.67,0-49.21,0-73.95c0.48,0,0.96,0,1.44,0c13.46,0,26.92-0.27,40.37,0.08 c11.72,0.31,22.15,4.18,29.43,13.97c4.09,5.49,6.87,11.58,6.78,18.72c-0.08,6.37,0.31,12.78-1.81,18.91 c-0.69,2.01-1.83,3.9-2.98,5.71c-3.03,4.79-7.21,8.75-11.89,11.53c-5.12,3.05-11,5.07-17.25,5.07c-14.46-0.01-28.91,0-43.37,0 C177.56,126.98,177.36,126.96,177.05,126.94z M231.94,102.93c0-7.36,0-14.62,0-22.02c-3.02,0-5.95,0-8.97,0c0-2.37,0-4.6,0-6.84 c-6.69,0-13.29,0-20.02,0c0,2.35,0,4.61,0,6.97c-3.04,0-5.94,0-8.85,0c0,7.36,0,14.62,0,21.86c1.02,0,1.94,0,2.96,0 c0-1.67,0-3.23,0-4.82c0.69,0,1.28,0,2.01,0c0,1.68,0,3.28,0,4.85c1.04,0,1.94,0,2.97,0c0-1.67,0-3.27,0-4.88c0.7,0,1.27,0,1.97,0 c0,1.65,0,3.25,0,4.86c1.07,0,2,0,3.06,0c0-1.68,0-3.28,0-4.84c0.7,0,1.27,0,1.97,0c0,1.67,0,3.27,0,4.87c1.04,0,1.94,0,2.97,0 c0-1.65,0-3.25,0-4.85c0.73,0,1.33,0,2.06,0c0,1.69,0,3.28,0,4.84c1.04,0,1.94,0,2.97,0c0-1.67,0-3.27,0-4.87c0.7,0,1.27,0,1.97,0 c0,1.65,0,3.25,0,4.85c1.07,0,2,0,3.06,0c0-1.69,0-3.28,0-4.83c0.71,0,1.27,0,1.97,0c0,1.67,0,3.27,0,4.86c1.04,0,1.94,0,2.97,0 c0-1.66,0-3.26,0-4.84c0.73,0,1.33,0,2.01,0c0,1.66,0,3.23,0,4.85C230.06,102.93,230.96,102.93,231.94,102.93z"/>
		<path d="M50.97,126.95c-8.05,0-15.92,0-23.88,0c0-24.63,0-49.22,0-73.97c0.45,0,0.89,0,1.33,0c14.04,0,28.09-0.19,42.12,0.14 c3.42,0.08,6.8,1.88,10.18,2.95c0.73,0.23,1.35,0.81,2.06,1.16c8.7,4.23,12.97,11.4,13.5,20.85c0.3,5.39,0.36,10.81-2.42,15.81 c-2.44,4.4-6.09,7.52-10.4,10.38c0.74,1.42,1.35,2.93,2.25,4.23c3.6,5.25,7.32,10.42,10.93,15.67c0.5,0.72,0.66,1.68,1.05,2.75 c-9.57,0-18.61,0-27.83,0c-4.04-6.19-8.13-12.46-12.33-18.9c-1.9,0-4.14,0-6.56,0C50.97,114.37,50.97,120.66,50.97,126.95z M66.41,89.95c3.3-2.28,4.77-4.92,4.8-9c0.03-4.15-1.67-6.66-4.71-8.9c-5.04,0-10.23,0-15.41,0c0,6.01,0,11.94,0,17.9 C56.33,89.95,61.48,89.95,66.41,89.95z"/>
		<path d="M165.98,53.08c0,6.29,0,12.49,0,18.83c-11.93,0-23.86,0-35.88,0c0,3.06,0,5.99,0,9.06c10.26,0,20.53,0,30.85,0 c0,6.04,0,11.93,0,17.97c-10.27,0-20.53,0-30.87,0c0,3.07,0,6,0,9.02c12.28,0,24.51,0,36.84,0c0,6.35,0,12.61,0,18.95 c-20.27,0-40.53,0-60.85,0c0-24.61,0-49.18,0-73.83C126.01,53.08,145.93,53.08,165.98,53.08z"/>
		<path d="M136.1,180.02c10.66,0,21.22,0,31.85,0c0,5.99,0,11.89,0,17.93c-10.6,0-21.2,0-31.87,0c0,3.4,0,6.66,0,10.02 c12.28,0,24.51,0,36.84,0c0,6.02,0,11.95,0,17.95c-20.27,0-40.53,0-60.85,0c0-24.61,0-49.18,0-73.83c19.93,0,39.86,0,59.86,0 c0,6.23,0,12.46,0,18.83c-11.89,0-23.82,0-35.84,0C136.1,173.98,136.1,176.91,136.1,180.02z"/>
		<path d="M246,152.09c0,6.29,0,12.5,0,18.84c-7.27,0-14.54,0-21.94,0c0,18.4,0,36.66,0,55c-8.37,0-16.6,0-24.98,0 c0-18.24,0-36.51,0-54.91c-7.4,0-14.66,0-21.99,0c0-6.37,0-12.6,0-18.93C200.02,152.09,222.95,152.09,246,152.09z"/>
	</g>
</svg>
