<?xml version="1.0" standalone="no"?>
<!DOCTYPE svg PUBLIC "-//W3C//DTD SVG 20010904//EN"
 "http://www.w3.org/TR/2001/REC-SVG-20010904/DTD/svg10.dtd">
<svg version="1.0" xmlns="http://www.w3.org/2000/svg"
 width="254.000000pt" height="254.000000pt" viewBox="0 0 254.000000 254.000000"
 preserveAspectRatio="xMidYMid meet" style="background-color: #fff;">
<g transform="translate(0.000000,254.000000) scale(0.100000,-0.100000)"
fill="#D64534" stroke="none">
<path d="M8 2523 c-2 -9 -2 -581 0 -1270 l2 -1253 1265 0 1265 0 0 1270 0
1270 -1264 0 c-1176 0 -1265 -1 -1268 -17z m794 -512 c48 -24 62 -57 66 -159
6 -137 -17 -186 -106 -218 -2 -1 69 -158 103 -226 7 -15 10 -29 7 -31 -6 -3
-39 -2 -87 2 -9 0 -39 51 -75 126 l-59 125 -100 0 -101 0 0 -130 0 -129 -47 2
-48 2 -3 315 c-1 173 0 321 3 328 7 19 407 13 447 -7z m698 -31 l0 -50 -190 0
-190 0 0 -90 0 -90 160 0 160 0 0 -50 0 -50 -160 0 -160 0 0 -90 0 -90 191 0
190 0 -3 -47 -3 -48 -235 0 -235 0 -3 328 -2 327 240 0 240 0 0 -50z m575 23
c98 -52 115 -96 115 -300 0 -146 -2 -162 -24 -210 -48 -101 -121 -125 -372
-121 l-159 3 -3 329 -2 328 202 -4 c183 -3 207 -6 243 -25z m-1570 -911 c28
-37 56 -74 62 -82 7 -8 65 -82 128 -165 64 -82 123 -157 132 -165 13 -13 14
-12 13 10 -1 14 -2 125 -1 248 l1 222 45 0 45 0 0 -325 0 -325 -49 0 -49 0
-118 155 c-66 85 -150 196 -189 246 l-70 91 -3 -246 -2 -246 -50 0 -50 0 0
318 c0 175 3 322 7 325 3 4 27 7 52 7 45 -1 47 -3 96 -68z m1065 18 l0 -50
-190 0 -190 0 0 -90 0 -90 166 0 165 0 -3 -47 -3 -48 -162 -3 -163 -2 0 -85
c0 -61 4 -85 13 -86 34 -4 95 -6 225 -8 l142 -1 0 -45 0 -45 -239 0 -240 0 -1
325 0 325 240 0 240 0 0 -50z m600 0 l0 -50 -105 0 -105 0 0 -275 0 -275 -50
0 -50 0 0 275 0 275 -105 0 -105 0 0 50 0 50 260 0 260 0 0 -50z"/>
<path d="M450 1830 l0 -100 138 0 c176 0 182 3 182 100 0 100 -1 100 -176 100
l-144 0 0 -100z"/>
</g>
</svg>
