<?xml version="1.0" encoding="utf-8"?>
<svg version="1.1" xmlns="http://www.w3.org/2000/svg" xmlns:xlink="http://www.w3.org/1999/xlink" x="0px" y="0px" viewBox="0 0 384 65" style="enable-background:new 0 0 384 65;" xml:space="preserve">
<g transform="translate(0.000000,65.000000) scale(0.100000,-0.100000)">
	<path d="M0,325V0h50h50v130v130h94c63,0,97-4,103-12c6-7,34-66,63-130L413,0h48c37,0,34,0,49,0c9,0-23,78-50,136 c-28,58-50,109-50,115c0,5,15,17,34,26c54,25,69,70,64,198l-3,107v0c-3,48-13,60.5-78,68l0,0H213H0V325z M404,535 c11-17,16-47,16-98c0-91,9-87-182-87H100v105v105h144C386,560,388,560,404,535z"/>
	<path d="M670,325V0h235h235v45v45H950H760v95v95h160h160v45v45H920H760v95v95h190h190v45v45H905H670V325z"/>
	<path d="M1280,325V0h201h200l47,31c94,63,97,69,101,268c4,200-3,232-57,288c-57,60-71,63-292,63h-200V325z"/>
	<path d="M2030,650V326V0h45h45l2,246l3,247l150-193c83-105,168-216,190-246c38-51,0,0,40.3-54h94.7v325v325h-45h-45l-2-241l-3-242 l-185,239l-185.8,244"/>
	<path d="M2770,325V0h235h235v45v45h-190h-190v95v95h160h160v45v45h-160h-160v95v95h190h190v45v45h-235h-235V325z"/>
	<path d="M3330,605v-45h105h105V280V0h45h45v280v280h105h105v45v45h-255h-255V605z"/>
</g>
</svg>
